<svg width="640" height="960" viewBox="0 0 640 960" fill="none" xmlns="http://www.w3.org/2000/svg">
  <rect width="640" height="960" rx="48" fill="#F8F4FC"/>
  <rect x="42" y="42" width="556" height="876" rx="40" fill="url(#bg)"/>
  <rect x="102" y="110" width="436" height="278" rx="32" fill="#FFFFFF" fill-opacity="0.82"/>
  <rect x="130" y="138" width="176" height="222" rx="28" fill="url(#cardA)"/>
  <rect x="324" y="138" width="186" height="102" rx="24" fill="#F4EEFB"/>
  <rect x="324" y="258" width="186" height="102" rx="24" fill="#EEE7F7"/>
  <circle cx="218" cy="230" r="58" fill="#FFFFFF" fill-opacity="0.72"/>
  <rect x="165" y="308" width="106" height="18" rx="9" fill="#FFFFFF" fill-opacity="0.7"/>
  <rect x="150" y="338" width="136" height="14" rx="7" fill="#FFFFFF" fill-opacity="0.54"/>
  <rect x="350" y="164" width="86" height="14" rx="7" fill="#8A76A1" fill-opacity="0.28"/>
  <rect x="350" y="194" width="130" height="10" rx="5" fill="#8A76A1" fill-opacity="0.18"/>
  <rect x="350" y="284" width="72" height="14" rx="7" fill="#8A76A1" fill-opacity="0.28"/>
  <rect x="350" y="314" width="118" height="10" rx="5" fill="#8A76A1" fill-opacity="0.18"/>
  <rect x="102" y="426" width="436" height="180" rx="32" fill="#FFFFFF" fill-opacity="0.72"/>
  <rect x="132" y="456" width="376" height="28" rx="14" fill="#F0E8F7"/>
  <rect x="132" y="500" width="268" height="16" rx="8" fill="#8A76A1" fill-opacity="0.18"/>
  <rect x="132" y="532" width="314" height="16" rx="8" fill="#8A76A1" fill-opacity="0.12"/>
  <rect x="132" y="564" width="202" height="16" rx="8" fill="#8A76A1" fill-opacity="0.12"/>
  <rect x="102" y="642" width="208" height="208" rx="32" fill="#FFFFFF" fill-opacity="0.76"/>
  <rect x="330" y="642" width="208" height="208" rx="32" fill="#FFFFFF" fill-opacity="0.66"/>
  <circle cx="206" cy="738" r="52" fill="url(#cardB)"/>
  <rect x="160" y="812" width="92" height="16" rx="8" fill="#8A76A1" fill-opacity="0.2"/>
  <path d="M382 724C382 694.177 406.177 670 436 670H484C513.823 670 538 694.177 538 724V778C538 807.823 513.823 832 484 832H436C406.177 832 382 807.823 382 778V724Z" fill="url(#cardC)"/>
  <rect x="398" y="804" width="124" height="14" rx="7" fill="#FFFFFF" fill-opacity="0.44"/>
  <defs>
    <linearGradient id="bg" x1="72" y1="86" x2="556" y2="886" gradientUnits="userSpaceOnUse">
      <stop stop-color="#FFF9FD"/>
      <stop offset="0.48" stop-color="#F1EBF8"/>
      <stop offset="1" stop-color="#E4E8FA"/>
    </linearGradient>
    <linearGradient id="cardA" x1="130" y1="138" x2="306" y2="360" gradientUnits="userSpaceOnUse">
      <stop stop-color="#7B668F"/>
      <stop offset="1" stop-color="#BDAFD2"/>
    </linearGradient>
    <linearGradient id="cardB" x1="154" y1="686" x2="258" y2="790" gradientUnits="userSpaceOnUse">
      <stop stop-color="#F2D8F4"/>
      <stop offset="1" stop-color="#CDC4F3"/>
    </linearGradient>
    <linearGradient id="cardC" x1="394" y1="670" x2="526" y2="832" gradientUnits="userSpaceOnUse">
      <stop stop-color="#6C5B86"/>
      <stop offset="1" stop-color="#9D8FBA"/>
    </linearGradient>
  </defs>
</svg>
