<svg width="720" height="480" viewBox="0 0 720 480" fill="none" xmlns="http://www.w3.org/2000/svg">
  <rect width="720" height="480" rx="40" fill="#FAF6FC"/>
  <rect x="24" y="24" width="672" height="432" rx="32" fill="url(#bg)"/>
  <rect x="62" y="68" width="196" height="156" rx="24" fill="#FFFFFF" fill-opacity="0.82"/>
  <rect x="280" y="68" width="188" height="92" rx="22" fill="#F7F1FB"/>
  <rect x="488" y="68" width="168" height="92" rx="22" fill="#EEE8F8"/>
  <rect x="280" y="180" width="376" height="150" rx="28" fill="#FFFFFF" fill-opacity="0.74"/>
  <rect x="62" y="246" width="176" height="148" rx="24" fill="url(#tileA)"/>
  <rect x="62" y="410" width="176" height="10" rx="5" fill="#FFFFFF" fill-opacity="0.58"/>
  <circle cx="160" cy="146" r="44" fill="url(#orb)"/>
  <rect x="304" y="94" width="108" height="12" rx="6" fill="#8A76A1" fill-opacity="0.2"/>
  <rect x="304" y="118" width="88" height="10" rx="5" fill="#8A76A1" fill-opacity="0.12"/>
  <rect x="510" y="96" width="82" height="12" rx="6" fill="#8A76A1" fill-opacity="0.2"/>
  <rect x="510" y="120" width="112" height="10" rx="5" fill="#8A76A1" fill-opacity="0.12"/>
  <rect x="304" y="208" width="144" height="16" rx="8" fill="#EFE7F8"/>
  <rect x="304" y="238" width="280" height="12" rx="6" fill="#8A76A1" fill-opacity="0.14"/>
  <rect x="304" y="264" width="244" height="12" rx="6" fill="#8A76A1" fill-opacity="0.1"/>
  <rect x="304" y="290" width="190" height="12" rx="6" fill="#8A76A1" fill-opacity="0.1"/>
  <defs>
    <linearGradient id="bg" x1="52" y1="52" x2="656" y2="432" gradientUnits="userSpaceOnUse">
      <stop stop-color="#FFF9FD"/>
      <stop offset="1" stop-color="#E9ECFA"/>
    </linearGradient>
    <linearGradient id="tileA" x1="62" y1="246" x2="238" y2="394" gradientUnits="userSpaceOnUse">
      <stop stop-color="#6C5B86"/>
      <stop offset="1" stop-color="#B5A8CC"/>
    </linearGradient>
    <linearGradient id="orb" x1="118" y1="102" x2="202" y2="190" gradientUnits="userSpaceOnUse">
      <stop stop-color="#F3D9F5"/>
      <stop offset="1" stop-color="#C8C6F2"/>
    </linearGradient>
  </defs>
</svg>
